<svg xmlns="http://www.w3.org/2000/svg" width="1024" height="1024" viewBox="0 0 1024 1024">
<g>
<path d="M 0.00 0.00 L 1024.00 0.00 L 1024.00 1024.00 L 0.00 1024.00 ZM 196.50 1020.98 L 210.50 1023.86 L 813.14 1024.00 L 828.32 1020.99 C870.45,1012.63 906.52,995.08 940.71,966.32 C969.77,941.87 993.49,908.57 1008.30,871.40 C1012.34,861.28 1017.60,845.67 1018.45,841.27 C1018.64,840.30 1019.85,834.78 1021.15,829.00 L 1023.50 818.50 L 1023.50 205.50 L 1021.22 195.50 C1019.97,190.00 1018.21,182.57 1017.32,179.00 C1015.01,169.74 1007.67,150.24 1001.97,138.22 C997.01,127.75 987.28,109.91 986.05,109.00 C985.67,108.72 983.86,106.25 982.02,103.50 C977.21,96.30 964.96,81.10 957.84,73.49 C946.44,61.31 924.25,43.63 907.79,33.65 C900.33,29.11 879.38,18.59 873.00,16.17 C853.18,8.65 834.19,3.77 816.00,1.54 C803.65,0.03 777.27,-0.09 507.00,0.20 L 211.50 0.52 L 199.96 2.68 C170.91,8.11 147.58,16.58 122.31,30.86 C108.28,38.80 100.99,43.94 84.98,57.21 C67.90,71.36 52.92,88.14 39.21,108.50 C32.83,117.97 19.58,143.21 16.60,151.57 C9.25,172.17 4.50,188.02 3.58,195.00 C3.32,196.93 2.42,203.11 1.56,208.74 C0.17,217.84 0.00,251.80 0.01,513.24 L 0.03 807.50 L 2.45 822.18 C11.73,878.43 41.97,931.12 86.00,967.78 C102.76,981.74 116.30,990.55 135.50,1000.01 C157.83,1011.01 172.46,1016.03 196.50,1020.98 ZM 726.27 908.50 L 722.43 923.50 L 427.19 923.75 L 131.95 924.00 L 131.12 921.75 C129.85,918.35 127.18,899.49 125.35,881.00 C123.28,860.10 123.01,812.99 124.84,793.50 C129.98,739.09 141.06,697.11 160.63,658.00 C181.25,616.78 207.98,584.82 245.50,556.51 C250.45,552.78 269.80,539.60 288.50,527.22 C338.87,493.89 350.54,485.41 364.33,472.09 C389.85,447.45 407.80,414.71 412.05,385.00 C412.64,380.88 413.54,365.12 414.04,350.00 C414.56,334.17 415.57,319.32 416.40,315.00 C421.58,288.08 434.89,263.99 455.59,244.05 C467.22,232.85 476.24,226.41 490.02,219.49 C513.04,207.91 535.88,203.10 561.94,204.36 C582.47,205.35 597.81,209.19 616.92,218.14 C653.30,235.17 684.76,269.83 698.49,308.00 C705.41,327.24 708.64,356.51 706.16,377.50 C705.58,382.45 704.38,392.52 703.51,399.88 C702.63,407.24 701.27,414.52 700.47,416.05 C698.58,419.72 694.89,422.25 686.67,425.54 C683.58,426.78 681.45,427.53 680.01,428.97 C676.84,432.13 676.98,438.60 677.45,460.78 C677.47,461.76 677.49,462.77 677.51,463.80 C678.19,496.02 678.15,496.34 672.74,500.36 C669.70,502.61 666.29,502.86 655.43,501.60 C646.79,500.60 646.06,501.14 643.14,510.76 C642.00,514.51 640.04,518.52 638.78,519.67 C637.53,520.81 631.86,523.38 626.20,525.37 C610.50,530.89 600.09,535.40 581.75,544.60 C572.54,549.22 563.90,553.00 562.56,553.00 C559.35,553.00 554.49,548.77 531.13,525.66 C508.65,503.42 501.06,494.39 496.09,484.00 L 492.50 476.50 L 491.50 435.50 L 486.89 428.00 C476.57,411.18 473.56,401.62 474.17,387.57 C474.83,372.54 480.17,365.50 490.90,365.50 C497.72,365.50 502.00,368.21 507.68,376.12 C509.61,378.80 511.60,381.00 512.09,381.00 C513.46,381.00 513.10,372.02 511.56,367.70 C509.32,361.43 504.90,355.98 499.55,352.91 C495.28,350.47 493.40,350.02 487.36,350.01 C477.34,350.00 471.15,353.29 465.40,361.69 C452.30,380.85 457.06,414.13 475.94,435.30 C479.27,439.04 482.09,442.64 482.20,443.30 C482.30,443.96 482.42,453.50 482.45,464.50 L 482.50 484.50 L 485.70 491.27 C489.96,500.31 497.73,511.17 513.30,529.86 C520.40,538.38 526.65,546.33 527.19,547.52 C528.02,549.35 527.06,551.37 520.98,560.59 C509.16,578.51 501.00,596.29 498.07,610.50 L 496.83 616.51 L 506.20 635.50 C517.10,657.63 524.39,676.87 529.30,696.50 C534.10,715.70 537.15,737.90 536.79,750.89 L 536.50 761.29 L 514.50 737.53 C502.40,724.47 491.52,712.18 490.32,710.23 C489.12,708.28 486.01,700.36 483.41,692.62 C480.81,684.89 476.76,674.16 474.40,668.78 C451.84,617.20 411.76,578.50 365.00,563.16 C349.75,558.16 324.44,554.94 315.00,556.81 C310.54,557.69 310.52,557.70 313.50,558.48 C358.83,570.37 386.88,585.75 414.05,613.65 C440.83,641.14 453.54,663.06 472.50,714.46 C473.95,718.40 477.92,723.21 491.91,737.98 C535.54,784.03 563.20,818.88 585.38,855.75 C587.45,859.19 589.56,862.00 590.06,862.00 C590.56,862.00 592.62,858.74 594.63,854.75 C599.12,845.82 606.00,833.71 622.02,806.50 C645.15,767.21 660.28,734.51 668.51,706.00 C671.88,694.34 676.00,676.45 676.00,673.48 C676.00,672.75 673.05,671.22 669.35,670.02 C656.60,665.91 645.78,659.50 629.15,646.24 C624.01,642.14 618.61,638.16 617.15,637.40 C614.06,635.78 609.19,635.60 605.60,636.96 L 603.07 637.92 L 606.20 644.60 C610.90,654.65 610.88,658.31 606.09,672.93 C603.82,679.86 601.01,686.43 599.76,687.77 C592.37,695.68 582.45,694.43 576.39,684.83 C574.92,682.50 568.87,671.05 562.94,659.39 C554.80,643.37 552.00,636.86 551.49,632.78 C550.70,626.41 552.39,621.40 556.70,617.39 C559.59,614.70 574.62,606.89 588.34,600.95 C597.36,597.05 602.29,592.36 601.81,588.15 C601.52,585.67 601.20,585.51 596.87,585.73 C591.65,585.99 581.87,589.43 565.00,596.93 C548.63,604.22 543.93,604.65 538.66,599.38 C535.61,596.33 535.07,590.70 537.40,586.20 C539.67,581.80 550.12,572.50 560.14,565.96 C579.69,553.19 619.41,535.67 638.25,531.51 C648.23,529.31 653.87,530.48 661.30,536.29 C679.00,550.15 716.91,583.85 733.50,600.47 C747.93,614.92 751.34,620.29 755.13,634.50 C758.17,645.84 758.74,671.16 756.57,697.54 C749.50,783.32 738.22,861.83 726.27,908.50 ZM 633.00 422.78 C638.64,425.74 640.23,426.14 645.00,425.78 C650.43,425.37 665.94,419.38 665.98,417.68 C666.01,416.45 648.49,408.58 640.50,406.23 C628.80,402.78 600.65,398.01 599.40,399.26 C598.66,400.00 625.80,419.00 633.00,422.78 Z" fill="rgb(30,27,24)"/>
<path d="M 849.00 250.50 C853.49,255.08 853.48,255.58 848.96,253.77 C847.37,253.14 846.02,251.49 845.36,249.38 C844.77,247.52 844.36,246.00 844.44,246.00 C844.52,246.00 846.57,248.02 849.00,250.50 ZM 802.53 255.78 C802.39,255.94 801.23,256.26 799.95,256.51 C797.97,256.89 798.28,256.29 802.02,252.48 C804.44,250.02 806.54,248.00 806.69,248.00 C806.94,248.00 803.13,255.12 802.53,255.78 ZM 828.43 188.89 C828.73,189.38 827.65,189.97 826.01,190.21 C823.64,190.56 823.27,190.38 824.15,189.32 C825.40,187.81 827.62,187.58 828.43,188.89 ZM 812.01 306.65 C813.24,307.83 814.03,309.40 813.78,310.15 C813.50,310.96 812.62,310.11 811.56,308.00 L 809.79 304.50 Z" fill="rgb(181,95,63)"/>
<path d="M 812.01 306.65 L 809.79 304.50 L 811.31 307.51 C810.71,306.48 810.07,305.34 809.47,304.22 C803.21,292.50 787.69,283.29 767.91,279.55 C756.38,277.37 756.00,277.21 756.00,274.50 L 756.00 274.37 C756.00,273.78 756.00,273.33 756.16,272.95 C756.71,271.69 759.08,271.21 769.39,269.03 C784.17,265.90 792.60,261.59 802.15,252.29 C809.79,244.86 811.05,242.93 817.03,229.50 C818.60,225.97 821.85,207.77 822.48,199.00 C822.77,194.95 823.22,192.09 823.89,190.31 C824.19,190.42 824.87,190.38 826.01,190.21 C827.27,190.03 828.21,189.63 828.43,189.23 C829.16,190.15 829.54,191.69 829.58,193.86 C829.63,196.14 829.96,198.30 830.33,198.67 C830.70,199.03 831.00,201.01 831.00,203.06 C831.00,209.16 833.91,223.01 836.77,230.50 C838.24,234.35 839.46,237.73 839.48,238.00 C839.74,240.99 858.53,261.00 861.08,261.00 C861.55,261.00 865.20,262.51 869.21,264.36 C875.33,267.19 886.05,270.11 894.49,271.25 C896.70,271.55 897.75,274.65 896.17,276.23 C895.62,276.78 893.44,277.61 891.33,278.06 C877.21,281.10 872.63,282.53 864.57,286.37 C857.40,289.79 854.21,292.05 849.37,297.14 C838.65,308.40 833.15,322.35 831.01,343.74 C830.41,349.66 829.71,355.51 829.44,356.75 C828.91,359.25 825.90,359.79 824.16,357.70 C823.57,356.98 822.80,352.59 822.47,347.95 C822.13,343.30 821.41,337.02 820.87,334.00 C819.62,326.94 815.16,312.95 813.54,311.00 C813.38,310.81 813.16,310.51 812.90,310.11 C813.32,310.54 813.63,310.58 813.78,310.15 C814.03,309.40 813.24,307.83 812.01,306.65 ZM 849.00 250.50 C846.57,248.02 844.52,246.00 844.44,246.00 C844.36,246.00 844.77,247.52 845.36,249.38 C846.02,251.49 847.37,253.14 848.96,253.77 C853.48,255.58 853.49,255.08 849.00,250.50 ZM 802.53 255.78 C803.13,255.12 806.94,248.00 806.69,248.00 C806.54,248.00 804.44,250.02 802.02,252.48 C798.28,256.29 797.97,256.89 799.95,256.51 C801.23,256.26 802.39,255.94 802.53,255.78 ZM 826.30 188.07 C825.79,188.15 825.27,188.36 824.80,188.70 C825.24,188.23 825.73,188.02 826.30,188.07 Z" fill="rgb(188,89,46)"/>
<path d="M 196.50 1020.98 C172.46,1016.03 157.83,1011.01 135.50,1000.01 C116.30,990.55 102.76,981.74 86.00,967.78 C41.97,931.12 11.73,878.43 2.45,822.18 L 0.03 807.50 L 0.01 513.24 C0.00,251.80 0.17,217.84 1.56,208.74 C2.42,203.11 3.32,196.93 3.58,195.00 C4.50,188.02 9.25,172.17 16.60,151.57 C19.58,143.21 32.83,117.97 39.21,108.50 C52.92,88.14 67.90,71.36 84.98,57.21 C100.99,43.94 108.28,38.80 122.31,30.86 C147.58,16.58 170.91,8.11 199.96,2.68 L 211.50 0.52 L 507.00 0.20 C777.27,-0.09 803.65,0.03 816.00,1.54 C834.19,3.77 853.18,8.65 873.00,16.17 C879.38,18.59 900.33,29.11 907.79,33.65 C924.25,43.63 946.44,61.31 957.84,73.49 C964.96,81.10 977.21,96.30 982.02,103.50 C983.86,106.25 985.67,108.72 986.05,109.00 C987.28,109.91 997.01,127.75 1001.97,138.22 C1007.67,150.24 1015.01,169.74 1017.32,179.00 C1018.21,182.57 1019.97,190.00 1021.22,195.50 L 1023.50 205.50 L 1023.50 512.00 L 1023.50 818.50 L 1021.15 829.00 C1019.85,834.78 1018.64,840.30 1018.45,841.27 C1017.60,845.67 1012.34,861.28 1008.30,871.40 C993.49,908.57 969.77,941.87 940.71,966.32 C906.52,995.08 870.45,1012.63 828.32,1020.99 L 813.14 1024.00 L 511.82 1023.93 L 210.50 1023.86 L 196.50 1020.98 ZM 726.27 908.50 C738.22,861.83 749.50,783.32 756.57,697.54 C758.74,671.16 758.17,645.84 755.13,634.50 C751.34,620.29 747.93,614.92 733.50,600.47 C716.91,583.85 679.00,550.15 661.30,536.29 C653.87,530.48 648.23,529.31 638.25,531.51 C619.41,535.67 579.69,553.19 560.14,565.96 C550.12,572.50 539.67,581.80 537.40,586.20 C535.07,590.70 535.61,596.33 538.66,599.38 C543.93,604.65 548.63,604.22 565.00,596.93 C581.87,589.43 591.65,585.99 596.87,585.73 C601.20,585.51 601.52,585.67 601.81,588.15 C602.29,592.36 597.36,597.05 588.34,600.95 C574.62,606.89 559.59,614.70 556.70,617.39 C552.39,621.40 550.70,626.41 551.49,632.78 C552.00,636.86 554.80,643.37 562.94,659.39 C568.87,671.05 574.92,682.50 576.39,684.83 C582.45,694.43 592.37,695.68 599.76,687.77 C601.01,686.43 603.82,679.86 606.09,672.93 C610.88,658.31 610.90,654.65 606.20,644.60 L 603.07 637.92 L 605.60 636.96 C609.19,635.60 614.06,635.78 617.15,637.40 C618.61,638.16 624.01,642.14 629.15,646.24 C645.78,659.50 656.60,665.91 669.35,670.02 C673.05,671.22 676.00,672.75 676.00,673.48 C676.00,676.45 671.88,694.34 668.51,706.00 C660.28,734.51 645.15,767.21 622.02,806.50 C606.00,833.71 599.12,845.82 594.63,854.75 C592.62,858.74 590.56,862.00 590.06,862.00 C589.56,862.00 587.45,859.19 585.38,855.75 C563.20,818.88 535.54,784.03 491.91,737.98 C477.92,723.21 473.95,718.40 472.50,714.46 C453.54,663.06 440.83,641.14 414.05,613.65 C386.88,585.75 358.83,570.37 313.50,558.48 C310.52,557.70 310.54,557.69 315.00,556.81 C324.44,554.94 349.75,558.16 365.00,563.16 C411.76,578.50 451.84,617.20 474.40,668.78 C476.76,674.16 480.81,684.89 483.41,692.62 C486.01,700.36 489.12,708.28 490.32,710.23 C491.52,712.18 502.40,724.47 514.50,737.53 L 536.50 761.29 L 536.79 750.89 C537.15,737.90 534.10,715.70 529.30,696.50 C524.39,676.87 517.10,657.63 506.20,635.50 L 496.83 616.51 L 498.07 610.50 C501.00,596.29 509.16,578.51 520.98,560.59 C527.06,551.37 528.02,549.35 527.19,547.52 C526.65,546.33 520.40,538.38 513.30,529.86 C497.73,511.17 489.96,500.31 485.70,491.27 L 482.50 484.50 L 482.45 464.50 C482.42,453.50 482.30,443.96 482.20,443.30 C482.09,442.64 479.27,439.04 475.94,435.30 C457.06,414.13 452.30,380.85 465.40,361.69 C471.15,353.29 477.34,350.00 487.36,350.01 C493.40,350.02 495.28,350.47 499.55,352.91 C504.90,355.98 509.32,361.43 511.56,367.70 C513.10,372.02 513.46,381.00 512.09,381.00 C511.60,381.00 509.61,378.80 507.68,376.12 C502.00,368.21 497.72,365.50 490.90,365.50 C480.17,365.50 474.83,372.54 474.17,387.57 C473.56,401.62 476.57,411.18 486.89,428.00 L 491.50 435.50 L 492.00 456.00 L 492.50 476.50 L 496.09 484.00 C501.06,494.39 508.65,503.42 531.13,525.66 C554.49,548.77 559.35,553.00 562.56,553.00 C563.90,553.00 572.54,549.22 581.75,544.60 C600.09,535.40 610.50,530.89 626.20,525.37 C631.86,523.38 637.53,520.81 638.78,519.67 C640.04,518.52 642.00,514.51 643.14,510.76 C646.06,501.14 646.79,500.60 655.43,501.60 C666.29,502.86 669.70,502.61 672.74,500.36 C678.15,496.34 678.19,496.02 677.51,463.80 C676.77,428.43 676.49,429.62 686.67,425.54 C694.89,422.25 698.58,419.72 700.47,416.05 C701.27,414.52 702.63,407.24 703.51,399.88 C704.38,392.52 705.58,382.45 706.16,377.50 C708.64,356.51 705.41,327.24 698.49,308.00 C684.76,269.83 653.30,235.17 616.92,218.14 C597.81,209.19 582.47,205.35 561.94,204.36 C535.88,203.10 513.04,207.91 490.02,219.49 C476.24,226.41 467.22,232.85 455.59,244.05 C434.89,263.99 421.58,288.08 416.40,315.00 C415.57,319.32 414.56,334.17 414.04,350.00 C413.54,365.12 412.64,380.88 412.05,385.00 C407.80,414.71 389.85,447.45 364.33,472.09 C350.54,485.41 338.87,493.89 288.50,527.22 C269.80,539.60 250.45,552.78 245.50,556.51 C207.98,584.82 181.25,616.78 160.63,658.00 C141.06,697.11 129.98,739.09 124.84,793.50 C123.01,812.99 123.28,860.10 125.35,881.00 C127.18,899.49 129.85,918.35 131.12,921.75 L 131.95 924.00 L 427.19 923.75 L 722.43 923.50 L 726.27 908.50 ZM 829.44 356.75 C829.71,355.51 830.41,349.66 831.01,343.74 C833.15,322.35 838.65,308.40 849.37,297.14 C854.21,292.05 857.40,289.79 864.57,286.37 C872.63,282.53 877.21,281.10 891.33,278.06 C893.44,277.61 895.62,276.78 896.17,276.23 C897.75,274.65 896.70,271.55 894.49,271.25 C886.05,270.11 875.33,267.19 869.21,264.36 C865.20,262.51 861.55,261.00 861.08,261.00 C858.53,261.00 839.74,240.99 839.48,238.00 C839.46,237.73 838.24,234.35 836.77,230.50 C833.91,223.01 831.00,209.16 831.00,203.06 C831.00,201.01 830.70,199.03 830.33,198.67 C829.96,198.30 829.63,196.14 829.58,193.86 C829.53,191.10 828.93,189.37 827.77,188.63 C824.68,186.67 823.14,189.68 822.48,199.00 C821.85,207.77 818.60,225.97 817.03,229.50 C811.05,242.93 809.79,244.86 802.15,252.29 C792.60,261.59 784.17,265.90 769.39,269.03 C755.77,271.91 756.00,271.82 756.00,274.50 C756.00,277.21 756.38,277.37 767.91,279.55 C787.69,283.29 803.21,292.50 809.47,304.22 C811.02,307.13 812.85,310.17 813.54,311.00 C815.16,312.95 819.62,326.94 820.87,334.00 C821.41,337.02 822.13,343.30 822.47,347.95 C822.80,352.59 823.57,356.98 824.16,357.70 C825.90,359.79 828.91,359.25 829.44,356.75 ZM 633.00 422.78 C625.80,419.00 598.66,400.00 599.40,399.26 C600.65,398.01 628.80,402.78 640.50,406.23 C648.49,408.58 666.01,416.45 665.98,417.68 C665.94,419.38 650.43,425.37 645.00,425.78 C640.23,426.14 638.64,425.74 633.00,422.78 Z" fill="rgb(253,246,241)"/>
</g>
</svg>