<svg xmlns="http://www.w3.org/2000/svg" width="1901" height="523" viewBox="0 0 1901 523">
<g>
<path d="M 94.81 471.14 C93.17,472.18 83.28,472.27 82.66,471.25 C82.17,470.46 76.26,450.62 74.99,445.50 C74.58,443.85 71.97,434.85 69.19,425.50 C63.03,404.75 54.34,375.28 52.39,368.50 C51.60,365.75 50.68,359.00 50.35,353.50 C49.51,339.40 51.55,329.42 58.03,316.07 C62.44,306.98 64.23,304.52 71.80,297.03 C82.72,286.24 93.62,278.92 115.00,268.04 C145.56,252.49 157.37,245.50 170.00,235.47 C178.81,228.48 183.32,222.72 189.53,210.48 C198.62,192.61 202.82,176.04 201.61,162.85 C198.63,130.08 200.22,113.60 208.05,96.37 C217.61,75.35 239.24,56.85 263.00,49.39 C288.40,41.41 318.94,43.72 341.57,55.31 C359.20,64.34 374.54,80.06 382.97,97.72 C387.70,107.63 387.73,107.70 390.53,117.50 C394.72,132.18 395.00,160.54 391.12,178.99 C390.46,182.17 389.21,184.29 386.88,186.24 C385.06,187.76 383.18,189.00 382.69,189.00 C382.21,189.00 380.45,189.96 378.80,191.14 L 375.79 193.29 L 376.52 215.63 C377.17,235.75 377.07,238.24 375.54,240.57 C373.08,244.33 368.23,246.05 362.13,245.33 C357.73,244.81 356.96,244.98 356.41,246.61 C356.07,247.65 354.98,250.30 354.00,252.50 C352.04,256.88 352.22,258.00 354.86,258.00 C356.66,258.00 364.34,262.50 367.00,265.11 C367.83,265.93 371.46,269.04 375.07,272.04 C420.61,309.87 422.63,311.77 426.75,320.76 C429.75,327.31 431.52,340.32 432.71,364.49 L 433.50 380.48 L 441.63 385.99 C446.10,389.02 450.45,392.21 451.29,393.09 C453.77,395.66 460.00,405.79 460.00,407.25 C460.00,407.99 460.39,409.03 460.87,409.55 C461.91,410.70 464.46,421.04 465.93,430.12 C467.44,439.44 467.35,469.25 465.80,470.80 C464.31,472.29 459.35,472.38 458.46,470.93 C458.10,470.35 457.40,463.56 456.92,455.85 C455.87,439.12 452.87,422.08 449.30,412.59 C446.62,405.47 438.95,396.00 435.86,396.00 C434.20,396.00 434.20,396.15 436.03,433.25 C437.41,461.29 437.31,469.50 435.57,470.94 C434.79,471.59 432.20,471.98 429.82,471.81 L 425.50 471.50 L 424.86 461.00 C424.51,455.23 423.72,437.67 423.09,422.00 C422.47,406.33 421.49,381.80 420.91,367.50 C419.77,339.36 418.44,330.13 414.56,323.51 C411.89,318.96 402.62,309.95 390.76,300.39 C386.77,297.17 378.97,290.65 373.43,285.89 C354.10,269.31 351.94,268.32 342.00,271.43 C331.70,274.66 312.97,283.44 305.11,288.72 C300.50,291.82 298.09,291.60 292.14,287.50 C289.34,285.58 286.37,284.00 285.54,284.00 C284.72,284.00 281.29,287.49 277.92,291.75 C272.00,299.25 267.14,308.14 263.30,318.49 C259.57,328.53 255.89,323.08 257.89,310.50 C259.42,300.89 260.40,298.00 265.85,287.01 C273.07,272.45 272.77,269.99 262.51,260.00 C255.80,253.46 248.80,243.95 245.81,237.30 C244.06,233.40 243.64,230.50 243.58,221.85 C243.51,212.64 243.76,210.92 245.45,209.06 C246.69,207.69 248.33,207.01 249.95,207.20 C252.42,207.49 252.52,207.80 253.28,217.00 C254.62,233.29 256.43,236.47 274.97,255.06 C288.30,268.43 297.07,276.00 299.23,276.00 C300.07,276.00 306.38,273.30 313.26,270.00 C320.13,266.70 326.21,264.00 326.76,264.00 C327.30,264.00 330.39,262.81 333.63,261.35 L 339.50 258.70 L 334.50 257.23 C324.21,254.21 320.00,252.27 320.00,250.57 C320.00,248.29 325.97,247.65 336.15,248.86 C341.18,249.45 345.66,249.71 346.11,249.43 C347.55,248.54 348.32,241.92 347.13,240.73 C345.57,239.17 345.72,236.48 347.45,235.04 C348.54,234.14 350.95,234.09 357.19,234.85 C361.75,235.40 365.71,235.62 365.99,235.34 C366.27,235.06 366.50,223.61 366.50,209.91 C366.50,185.85 366.43,184.96 364.50,184.36 C363.40,184.02 360.70,182.94 358.50,181.97 C356.30,180.99 352.25,179.43 349.50,178.51 C346.75,177.58 343.72,176.41 342.76,175.91 C341.81,175.41 340.34,175.00 339.50,175.00 C338.66,175.00 337.19,174.59 336.24,174.08 C335.28,173.58 331.80,172.41 328.50,171.48 C325.20,170.56 321.15,169.41 319.50,168.94 C317.85,168.47 314.36,167.51 311.75,166.82 C309.14,166.13 307.00,164.99 307.00,164.28 C307.00,162.75 330.85,162.43 335.60,163.90 C337.20,164.39 341.20,165.56 344.50,166.51 C352.10,168.68 356.41,170.11 367.00,173.97 C378.39,178.13 380.01,177.86 381.74,171.50 C383.86,163.75 383.81,137.40 381.67,127.40 C377.52,108.06 370.45,94.51 357.99,82.03 C348.66,72.68 343.59,68.92 334.50,64.59 C315.99,55.78 297.43,52.98 280.50,56.43 C263.73,59.85 253.97,64.06 242.10,72.98 C228.06,83.55 220.68,94.09 214.47,112.50 C211.89,120.15 210.68,136.71 211.89,147.84 C212.50,153.47 213.00,162.55 213.00,168.02 C213.00,177.72 210.62,193.55 208.87,195.45 C208.39,195.97 208.00,197.41 208.00,198.64 C208.00,199.87 207.55,201.16 207.00,201.50 C206.45,201.84 206.00,202.82 206.00,203.69 C206.00,205.98 196.39,224.70 192.50,229.98 C181.58,244.83 164.31,257.37 129.91,275.46 C118.41,281.50 115.28,283.55 116.16,284.47 C116.53,284.85 119.90,285.85 123.66,286.69 C150.82,292.78 176.89,317.65 190.54,350.50 C195.69,362.88 195.58,362.58 198.52,371.99 C201.25,380.67 201.34,380.81 213.92,394.50 C216.44,397.25 221.43,402.88 225.00,407.00 C228.58,411.12 231.73,414.73 232.02,415.00 C234.23,417.10 255.31,445.03 257.54,448.80 C258.58,450.56 259.78,452.00 260.22,452.00 C260.65,452.00 261.00,452.67 261.00,453.50 C261.00,454.33 261.42,455.00 261.93,455.00 C262.45,455.00 263.12,455.79 263.43,456.75 C263.74,457.71 265.11,459.80 266.48,461.39 C268.95,464.25 269.05,464.27 277.77,463.78 C282.83,463.49 287.83,462.62 289.53,461.73 C297.49,457.57 318.19,433.04 326.04,418.47 C330.54,410.11 331.57,409.15 332.41,412.51 C333.10,415.24 330.43,428.70 328.85,430.45 C328.38,430.97 328.00,432.05 328.00,432.83 C328.00,434.66 322.13,446.20 317.66,453.15 C315.77,456.09 311.07,461.54 307.21,465.25 L 300.19 472.00 L 279.35 471.98 C267.88,471.98 258.05,471.64 257.50,471.23 C256.95,470.83 254.74,467.80 252.60,464.50 C248.45,458.10 236.97,441.83 236.02,441.00 C235.71,440.73 232.99,437.35 229.99,433.50 C224.08,425.92 215.11,415.47 202.50,401.44 C198.10,396.55 193.49,391.42 192.26,390.05 C191.03,388.67 189.07,384.39 187.90,380.52 C179.62,353.14 173.64,340.80 161.72,326.50 C145.81,307.42 128.51,298.00 109.38,298.00 C101.14,298.00 99.16,298.36 93.63,300.87 C76.54,308.62 66.65,322.00 63.96,341.00 C61.74,356.69 65.70,372.56 74.97,385.14 C77.62,388.73 87.61,398.88 92.56,403.00 C94.21,404.38 98.24,407.73 101.53,410.45 C104.81,413.17 109.78,417.44 112.56,419.95 C115.35,422.45 119.62,426.20 122.06,428.28 C130.49,435.45 164.92,470.32 164.40,471.16 C164.12,471.62 161.31,472.00 158.17,472.00 L 152.45 472.00 L 144.97 464.43 C135.60,454.93 115.17,437.21 99.50,424.98 C92.90,419.83 85.93,414.13 84.00,412.31 C82.07,410.50 80.13,409.01 79.67,409.01 C78.78,409.00 79.48,413.06 81.47,419.50 C82.15,421.70 83.21,425.30 83.83,427.50 C84.44,429.70 86.34,436.00 88.05,441.50 C94.22,461.37 96.24,470.23 94.81,471.14 ZM 1214.50 384.56 C1214.50,386.42 1213.46,386.51 1188.43,386.77 C1174.10,386.91 1162.06,386.73 1161.68,386.35 C1160.43,385.09 1160.98,382.00 1162.47,382.00 C1165.46,382.00 1170.76,378.67 1172.60,375.64 C1174.43,372.62 1174.50,369.25 1174.50,289.77 L 1174.50 207.05 L 1171.79 204.34 C1170.30,202.85 1167.63,201.15 1165.87,200.56 C1164.10,199.98 1162.47,198.94 1162.25,198.26 C1161.82,196.95 1162.28,196.72 1174.00,192.34 C1178.12,190.80 1185.05,187.83 1189.38,185.72 C1193.71,183.62 1197.99,182.04 1198.88,182.22 C1200.34,182.50 1200.53,187.27 1200.76,231.26 C1200.94,265.53 1201.34,280.00 1202.11,280.00 C1202.70,280.00 1206.04,277.39 1209.53,274.20 C1220.42,264.22 1230.88,260.43 1245.41,261.19 C1255.38,261.72 1262.65,264.79 1268.82,271.09 C1278.55,281.03 1279.00,283.64 1279.02,330.30 C1279.03,370.33 1279.32,373.34 1283.56,378.10 C1284.63,379.29 1286.96,380.89 1288.75,381.65 C1290.54,382.41 1292.00,383.58 1291.99,384.26 C1291.98,385.17 1288.22,385.58 1277.74,385.80 C1249.58,386.39 1232.58,384.49 1242.45,381.86 C1245.77,380.97 1249.64,377.57 1251.59,373.80 C1253.66,369.84 1253.65,297.47 1251.58,290.61 C1249.68,284.29 1246.15,279.91 1240.71,277.11 C1236.85,275.12 1235.03,274.83 1228.34,275.15 C1218.84,275.59 1213.82,277.90 1206.25,285.30 L 1201.00 290.43 L 1201.01 328.97 C1201.01,353.59 1201.40,368.94 1202.10,371.50 C1203.43,376.40 1207.40,380.79 1211.46,381.84 C1213.53,382.38 1214.50,383.25 1214.50,384.56 ZM 798.00 384.23 C798.00,385.22 792.12,385.54 771.00,385.67 C748.30,385.81 744.00,385.61 744.00,384.42 C744.00,383.64 744.84,383.00 745.87,383.00 C749.29,383.00 755.67,376.35 756.89,371.54 C758.50,365.12 758.44,214.21 756.82,208.81 C755.57,204.61 752.02,201.42 747.99,200.85 C746.30,200.61 745.50,199.87 745.50,198.54 C745.50,197.06 746.85,196.11 751.00,194.67 C754.03,193.62 761.45,190.51 767.50,187.75 C773.55,185.00 779.62,182.69 781.00,182.62 L 783.50 182.50 L 783.76 231.75 C783.90,258.84 784.29,281.00 784.63,281.00 C784.97,281.00 788.09,278.33 791.58,275.08 C795.37,271.53 801.01,267.62 805.65,265.33 C813.28,261.56 813.56,261.50 824.95,261.51 C835.63,261.52 836.94,261.74 842.39,264.40 C853.41,269.79 858.84,277.51 860.89,290.69 C861.55,294.96 862.00,312.24 862.01,333.19 C862.01,355.32 862.41,369.95 863.09,372.38 C864.41,377.14 867.96,380.84 871.97,381.64 C875.80,382.41 876.01,384.99 872.25,385.03 C870.74,385.05 858.81,385.32 845.75,385.64 C822.52,386.21 822.00,386.18 822.00,384.24 C822.00,382.86 822.86,382.08 824.78,381.69 C826.30,381.39 828.79,380.17 830.30,378.98 C835.80,374.65 836.00,373.03 836.00,333.45 C836.00,310.01 835.60,295.42 834.87,292.25 C832.28,281.05 824.62,275.00 813.00,275.00 C804.05,275.00 796.94,278.05 789.50,285.09 L 784.00 290.29 L 784.00 330.06 C784.00,366.61 784.15,370.19 785.86,374.17 C787.66,378.37 789.45,379.85 795.25,381.95 C796.76,382.50 798.00,383.52 798.00,384.23 ZM 1629.25 385.10 C1626.09,385.15 1617.76,385.49 1610.75,385.85 C1603.74,386.21 1598.00,386.26 1598.00,385.97 C1598.00,385.48 1587.64,370.15 1565.41,337.75 C1560.60,330.74 1556.37,325.00 1556.02,325.00 C1555.66,325.00 1554.17,326.26 1552.69,327.80 L 1550.00 330.61 L 1550.00 349.66 C1550.00,361.21 1550.45,370.04 1551.14,372.10 C1552.42,375.95 1556.71,381.00 1558.69,381.00 C1559.41,381.00 1560.00,381.45 1560.00,382.00 C1560.00,382.55 1560.68,383.00 1561.50,383.00 C1562.32,383.00 1563.00,383.68 1563.00,384.51 C1563.00,385.83 1559.70,385.97 1536.77,385.57 C1522.34,385.32 1510.41,384.72 1510.24,384.23 C1510.08,383.74 1511.74,382.75 1513.92,382.03 C1516.11,381.30 1519.16,379.40 1520.70,377.79 L 1523.50 374.87 L 1523.50 207.13 L 1520.56 204.07 C1518.65,202.07 1516.65,201.00 1514.81,201.00 C1512.48,201.00 1512.00,200.57 1512.00,198.52 C1512.00,196.64 1512.67,195.88 1514.75,195.38 C1519.19,194.32 1529.86,190.11 1538.90,185.86 C1543.53,183.68 1547.91,182.14 1548.65,182.42 C1549.76,182.85 1550.00,195.06 1550.00,251.97 C1550.00,307.49 1550.25,321.00 1551.28,321.00 C1552.76,321.00 1589.58,284.09 1592.83,279.35 C1594.03,277.61 1595.00,275.54 1595.00,274.75 C1595.00,272.65 1592.01,270.28 1587.47,268.79 C1585.19,268.05 1583.50,266.85 1583.50,266.00 C1583.50,264.71 1586.64,264.50 1605.50,264.50 C1623.31,264.50 1627.50,264.76 1627.50,265.85 C1627.50,266.59 1625.47,267.85 1623.00,268.65 C1616.68,270.68 1614.18,271.94 1608.77,275.78 C1602.72,280.08 1576.00,305.87 1576.00,307.41 C1576.00,308.05 1578.33,311.93 1581.19,316.03 C1590.96,330.10 1595.37,336.50 1598.38,341.00 C1600.04,343.48 1601.69,345.73 1602.05,346.00 C1602.40,346.27 1603.78,348.14 1605.10,350.14 C1617.92,369.56 1627.01,380.41 1631.87,382.10 C1636.67,383.78 1635.61,384.99 1629.25,385.10 ZM 691.00 384.25 C690.99,385.22 684.11,385.53 660.25,385.63 C627.55,385.77 620.00,385.46 620.00,383.95 C620.00,383.43 620.86,383.00 621.92,383.00 C625.01,383.00 633.64,378.22 636.33,375.02 C637.70,373.39 639.31,369.77 639.91,366.98 C640.65,363.54 641.00,334.55 641.00,277.32 L 641.00 192.74 L 627.25 193.29 C619.28,193.60 612.03,194.41 610.00,195.20 C596.68,200.42 590.00,208.42 583.90,226.44 C580.38,236.84 578.28,239.87 576.53,237.06 C575.84,235.93 577.65,194.72 578.64,189.25 L 579.22 186.00 L 731.84 186.00 L 732.38 192.25 C733.59,206.10 734.42,220.95 734.46,229.00 C734.50,236.76 734.32,237.52 732.50,237.78 C730.80,238.02 730.14,236.83 728.06,229.88 C724.68,218.55 720.86,210.89 715.94,205.56 C707.38,196.27 700.34,193.71 683.00,193.59 L 670.50 193.50 L 670.50 367.50 L 673.30 372.26 C676.26,377.30 684.43,382.97 688.75,382.99 C689.99,383.00 691.00,383.56 691.00,384.25 ZM 1101.25 385.35 C1094.44,385.99 1052.40,385.93 1041.75,385.26 C1034.04,384.78 1034.18,382.78 1042.05,381.15 C1049.69,379.57 1054.88,374.83 1056.75,367.72 C1057.70,364.10 1058.00,342.75 1058.00,277.86 L 1058.00 192.74 L 1044.75 193.26 C1027.16,193.95 1020.63,196.16 1012.94,204.06 C1007.91,209.23 1003.28,217.98 1000.54,227.50 C999.59,230.80 998.42,234.51 997.93,235.75 C996.92,238.31 994.22,238.75 993.36,236.50 C992.84,235.15 994.03,212.69 995.64,193.25 L 996.23 186.00 L 1148.81 186.00 L 1149.42 196.75 C1149.76,202.66 1150.52,213.96 1151.12,221.85 C1151.83,231.36 1151.86,236.54 1151.21,237.19 C1149.40,239.00 1146.60,237.58 1145.87,234.49 C1140.62,212.41 1132.17,200.50 1118.00,195.19 C1116.07,194.47 1108.31,193.62 1100.75,193.30 L 1087.00 192.72 L 1087.02 279.61 C1087.04,362.03 1087.14,366.71 1088.90,370.58 C1089.92,372.82 1092.01,375.65 1093.55,376.86 C1096.67,379.32 1104.52,383.00 1106.63,383.00 C1107.38,383.00 1108.00,383.38 1108.00,383.86 C1108.00,384.33 1104.96,385.00 1101.25,385.35 ZM 1424.82 384.83 L 1425.14 387.00 L 1398.54 387.00 C1376.21,387.00 1371.85,386.77 1371.38,385.55 C1370.63,383.61 1371.73,382.00 1373.81,382.00 C1376.71,381.99 1381.70,378.31 1383.38,374.93 C1384.80,372.10 1385.00,366.36 1385.00,329.60 C1384.99,290.18 1384.87,287.30 1383.11,284.42 C1381.43,281.65 1379.56,280.50 1373.68,278.60 C1372.66,278.27 1372.00,277.27 1372.18,276.34 C1372.39,275.22 1375.65,273.64 1382.20,271.47 C1387.54,269.71 1395.35,266.63 1399.56,264.63 L 1399.89 264.47 C1405.56,261.78 1408.34,260.46 1409.70,261.34 C1411.00,262.18 1411.00,265.04 1411.00,270.65 L 1411.00 271.00 C1411.00,276.50 1411.40,281.00 1411.89,281.00 C1412.37,281.00 1415.55,278.32 1418.95,275.04 C1425.93,268.32 1434.35,263.69 1442.78,261.94 C1450.80,260.27 1463.28,261.26 1469.50,264.06 C1476.40,267.16 1484.23,275.58 1486.42,282.25 C1489.03,290.22 1489.93,306.82 1489.29,335.00 C1488.40,373.69 1489.29,377.62 1499.90,382.17 C1502.77,383.40 1503.99,384.39 1503.22,384.86 C1501.35,386.02 1450.55,385.68 1450.20,384.50 C1450.03,383.95 1450.71,383.34 1451.70,383.15 C1454.02,382.71 1459.76,377.28 1461.59,373.80 C1462.73,371.61 1463.00,363.91 1463.00,333.06 C1463.00,291.02 1462.69,288.34 1457.16,281.88 C1452.70,276.67 1448.38,275.00 1439.35,275.00 C1429.92,275.00 1422.45,278.48 1415.65,286.05 L 1411.00 291.22 L 1411.02 329.86 C1411.03,370.90 1411.32,373.76 1415.87,378.32 C1417.07,379.52 1419.50,380.99 1421.28,381.58 C1423.37,382.29 1424.61,383.42 1424.82,384.83 ZM 1701.04 388.60 C1694.67,390.13 1683.34,390.20 1677.50,388.76 C1656.86,383.66 1642.36,369.45 1635.40,347.50 C1633.87,342.65 1633.51,338.52 1633.53,326.00 C1633.56,311.57 1633.75,309.95 1636.39,302.50 C1642.80,284.39 1651.94,273.52 1666.92,266.19 L 1676.50 261.50 L 1689.50 261.50 C1702.98,261.50 1704.14,261.74 1714.94,266.85 C1729.18,273.58 1740.00,292.45 1740.00,310.57 L 1740.00 316.71 L 1732.75 317.21 C1728.76,317.48 1710.71,317.53 1692.63,317.32 C1667.76,317.04 1659.41,317.24 1658.30,318.17 C1657.11,319.15 1656.96,320.94 1657.53,327.36 C1660.03,355.60 1674.34,372.64 1696.52,373.81 C1711.51,374.59 1722.83,369.35 1732.84,357.00 C1737.93,350.71 1738.75,350.18 1739.65,352.52 C1741.18,356.52 1730.61,371.97 1721.57,378.95 C1715.56,383.58 1708.86,386.73 1701.04,388.60 ZM 951.20 388.59 C942.88,390.80 928.64,389.95 922.76,386.90 C921.81,386.41 920.34,386.00 919.49,386.00 C916.77,386.00 905.45,378.17 900.33,372.75 C894.15,366.21 890.48,360.00 887.39,350.89 C885.23,344.48 885.00,342.14 885.00,326.15 C885.00,310.10 885.21,307.90 887.36,302.00 C894.31,282.83 905.36,270.86 922.50,263.93 C927.75,261.80 930.06,261.50 941.00,261.51 L 953.50 261.53 L 962.00 265.64 C979.67,274.19 988.54,287.81 989.76,308.25 L 990.28 317.00 L 950.39 317.12 C928.45,317.18 910.21,317.20 909.85,317.15 C909.49,317.10 908.74,317.61 908.19,318.28 C907.01,319.71 908.50,337.51 910.03,340.24 C910.56,341.19 911.00,342.67 911.00,343.51 C911.00,346.52 917.22,357.32 921.72,362.14 C924.24,364.82 928.79,368.45 931.85,370.20 C936.56,372.89 938.68,373.45 945.68,373.81 C954.93,374.30 960.79,373.14 968.69,369.27 C973.68,366.83 982.56,358.56 986.08,353.08 C987.77,350.46 990.00,350.92 990.00,353.88 C990.00,357.59 983.36,367.79 976.55,374.56 C968.46,382.58 963.49,385.33 951.20,388.59 ZM 1805.80 385.80 C1804.93,386.67 1797.42,387.00 1778.27,387.00 C1756.17,387.00 1751.85,386.77 1751.38,385.55 C1750.57,383.45 1751.57,382.34 1754.84,381.68 C1759.09,380.83 1763.49,376.65 1764.82,372.19 C1766.38,366.99 1766.46,293.20 1764.91,287.63 C1763.56,282.77 1759.61,279.00 1755.85,279.00 C1754.28,279.00 1752.93,278.55 1752.85,278.00 C1752.77,277.45 1752.66,276.52 1752.60,275.94 C1752.55,275.36 1757.03,273.38 1762.56,271.55 C1768.10,269.71 1775.85,266.59 1779.79,264.61 C1787.62,260.66 1790.47,260.16 1791.39,262.58 C1791.73,263.45 1792.00,268.18 1792.00,273.08 C1792.00,278.06 1792.42,282.00 1792.95,282.00 C1793.48,282.00 1795.27,280.02 1796.94,277.59 C1804.55,266.53 1815.62,260.27 1825.72,261.31 C1833.71,262.14 1837.00,265.45 1837.00,272.68 C1837.00,277.38 1836.58,278.46 1833.38,282.00 C1830.22,285.50 1829.22,286.00 1825.42,286.00 C1822.30,286.00 1819.73,285.15 1816.34,283.00 C1809.61,278.73 1805.21,278.92 1799.93,283.68 C1797.94,285.48 1796.46,286.78 1795.34,288.35 C1792.00,293.05 1792.00,300.12 1792.00,329.86 L 1792.00 331.84 C1792.00,352.14 1792.28,370.17 1792.63,371.91 C1793.51,376.32 1797.88,380.62 1802.82,381.95 C1807.22,383.14 1807.76,383.84 1805.80,385.80 ZM 352.09 469.00 C351.44,471.19 350.70,471.54 346.17,471.80 C341.07,472.10 341.00,472.07 341.00,469.21 C341.00,465.08 345.76,447.20 353.85,421.00 C362.31,393.56 364.94,384.57 367.43,374.50 C368.38,370.65 369.50,366.37 369.91,364.98 C371.02,361.21 370.19,360.00 366.48,360.00 C364.63,360.00 362.84,359.55 362.50,359.00 C362.16,358.45 361.12,358.01 360.19,358.02 C355.94,358.05 347.08,352.08 338.29,343.25 L 329.07 334.00 L 325.54 335.68 C323.59,336.61 322.00,337.65 322.00,338.00 C322.00,338.34 322.97,340.62 324.15,343.06 C327.24,349.44 327.03,357.42 323.61,362.82 C319.27,369.71 312.63,371.85 307.69,367.97 C304.50,365.46 293.51,348.07 291.64,342.56 C287.15,329.38 286.95,325.88 290.33,319.15 C291.61,316.59 292.99,313.15 293.39,311.50 C294.63,306.42 298.70,301.28 304.73,297.19 C311.11,292.86 322.25,287.05 330.18,283.93 C334.68,282.15 335.51,282.08 336.78,283.35 C337.58,284.15 337.95,285.26 337.61,285.82 C337.06,286.71 329.98,291.00 317.69,297.90 C308.30,303.16 302.00,308.30 302.00,310.70 C302.00,312.44 302.93,312.34 306.50,310.19 C312.34,306.68 329.89,299.74 331.44,300.34 C335.98,302.08 331.14,306.25 314.50,314.93 C302.00,321.45 298.01,324.83 298.00,328.92 C298.00,333.24 303.09,346.24 307.09,352.13 C311.66,358.86 312.59,359.59 314.54,357.96 C316.75,356.13 316.31,353.27 312.49,344.51 C308.83,336.12 308.16,331.90 310.25,330.26 C311.59,329.21 327.24,322.21 330.38,321.27 C331.70,320.87 333.14,321.72 335.20,324.10 C342.41,332.45 351.82,341.39 355.88,343.78 C362.36,347.57 370.54,350.00 376.91,350.02 C379.98,350.02 383.06,350.38 383.74,350.82 C385.03,351.64 382.63,364.16 377.96,381.00 C376.82,385.12 375.42,390.30 374.85,392.50 C374.29,394.70 373.47,397.40 373.02,398.50 C372.17,400.62 367.61,415.76 365.80,422.50 C365.21,424.70 363.94,428.98 362.96,432.00 C361.99,435.02 360.50,439.98 359.64,443.00 C358.13,448.34 353.59,463.94 352.09,469.00 ZM 1359.00 383.75 C1359.00,385.37 1357.00,385.51 1332.50,385.69 C1310.00,385.85 1306.00,385.67 1306.00,384.44 C1306.00,383.65 1306.83,383.00 1307.84,383.00 C1310.69,383.00 1316.65,377.32 1318.41,372.93 C1319.77,369.54 1320.00,363.28 1320.00,330.35 C1320.00,303.47 1319.64,290.53 1318.81,287.78 C1317.52,283.46 1313.06,279.39 1309.00,278.84 C1305.33,278.34 1305.67,274.93 1309.50,273.74 C1317.58,271.23 1330.12,266.44 1335.44,263.83 C1336.35,263.38 1337.17,262.94 1337.92,262.54 C1340.07,261.38 1341.61,260.55 1342.73,260.94 C1345.96,262.08 1345.61,273.48 1346.00,317.00 C1346.46,367.60 1346.66,372.79 1348.27,375.73 C1350.02,378.95 1354.49,382.00 1357.45,382.00 C1358.30,382.00 1359.00,382.79 1359.00,383.75 ZM 1658.10 310.08 C1658.87,310.57 1671.55,310.98 1686.27,310.98 L 1713.05 311.00 L 1714.11 308.25 C1715.52,304.62 1714.38,293.04 1711.93,286.07 C1709.28,278.52 1705.72,273.49 1700.74,270.28 C1697.08,267.92 1695.46,267.54 1688.94,267.52 C1682.84,267.50 1680.44,267.98 1676.58,269.96 C1667.55,274.60 1661.07,285.46 1658.29,300.58 C1656.94,307.93 1656.91,309.33 1658.10,310.08 ZM 908.45 309.92 C909.44,311.52 962.19,311.41 963.80,309.80 C966.49,307.11 964.35,289.49 960.37,281.53 C955.64,272.07 950.31,268.19 940.76,267.28 C933.14,266.54 926.90,268.90 920.77,274.82 C915.91,279.51 912.73,285.11 910.44,293.00 C908.75,298.86 907.61,308.55 908.45,309.92 ZM 275.00 431.02 C275.00,435.66 273.49,438.59 272.53,435.81 C272.28,435.09 270.31,429.10 268.14,422.50 C261.43,402.02 253.99,385.02 244.51,368.50 C238.28,357.65 225.03,343.14 201.55,321.46 L 198.75 318.87 C174.79,296.75 170.53,292.82 171.00,292.14 C171.10,291.99 171.43,291.99 171.82,292.00 C171.89,292.00 171.96,292.00 172.03,292.00 C173.27,292.00 187.35,299.72 195.11,304.66 C212.13,315.49 239.22,339.24 248.84,351.76 C257.79,363.43 267.16,386.79 271.37,408.00 C272.19,412.12 273.34,417.90 273.93,420.83 C274.52,423.76 275.00,428.34 275.00,431.02 ZM 253.79 197.50 C253.53,200.15 253.08,200.53 249.95,200.80 C244.05,201.29 238.87,196.44 233.63,185.50 C228.94,175.71 227.31,165.98 229.01,157.93 C232.20,142.93 243.82,135.17 257.13,139.16 C259.26,139.80 261.00,140.64 261.00,141.04 C261.00,141.44 261.83,141.98 262.85,142.25 C266.19,143.13 270.26,149.69 270.78,155.04 C271.30,160.45 270.03,163.00 266.83,163.00 C265.60,163.00 264.40,161.82 263.53,159.75 C261.75,155.53 256.28,150.44 252.60,149.57 C248.62,148.63 244.42,150.58 242.01,154.49 C240.45,157.01 240.00,159.47 240.00,165.48 C240.00,176.21 242.22,182.14 248.79,188.98 C253.13,193.50 254.04,195.03 253.79,197.50 ZM 1339.99 241.14 C1338.08,242.17 1334.50,243.00 1332.00,243.00 C1325.81,243.00 1321.04,240.21 1318.27,234.99 C1315.65,230.02 1315.43,226.62 1317.41,221.87 C1322.61,209.47 1339.38,208.45 1345.95,220.14 C1347.08,222.14 1348.00,225.33 1348.00,227.23 C1348.00,232.17 1344.10,238.94 1339.99,241.14 ZM 347.45 194.05 C343.31,198.29 341.16,198.73 335.17,196.55 C329.48,194.49 313.77,180.89 315.31,179.36 C316.00,178.67 329.13,182.16 334.50,184.46 C336.15,185.16 339.52,186.30 342.00,186.97 C344.48,187.65 347.58,188.63 348.90,189.15 L 351.31 190.10 Z" fill="rgb(29,25,22)"/>
<path d="M 691.00 384.25 C691.00,383.56 689.99,383.00 688.75,382.99 C686.48,382.98 683.16,381.42 680.08,379.20 C682.15,380.37 684.53,381.12 687.33,381.54 C692.41,382.29 694.05,384.03 691.99,386.51 C690.13,388.76 620.22,388.75 619.36,386.50 C618.28,383.68 619.80,382.36 625.64,381.06 C627.75,380.58 629.64,379.90 631.31,379.01 C627.87,381.17 623.83,383.00 621.92,383.00 C620.86,383.00 620.00,383.43 620.00,383.95 C620.00,385.46 627.55,385.77 660.25,385.63 C684.11,385.53 690.99,385.22 691.00,384.25 ZM 1101.25 385.35 C1104.96,385.00 1108.00,384.33 1108.00,383.86 C1108.00,383.38 1107.38,383.00 1106.63,383.00 C1104.52,383.00 1096.67,379.32 1093.55,376.86 C1092.77,376.25 1091.86,375.23 1091.01,374.08 C1093.80,377.65 1098.03,380.07 1103.44,381.16 C1109.41,382.36 1111.09,383.98 1108.99,386.51 C1107.94,387.78 1102.49,388.00 1072.54,388.00 C1053.18,388.00 1037.03,387.70 1036.67,387.33 C1036.30,386.97 1036.00,385.71 1036.00,384.53 C1036.00,384.26 1036.02,384.02 1036.08,383.79 C1036.28,384.48 1038.17,385.04 1041.75,385.26 C1052.40,385.93 1094.44,385.99 1101.25,385.35 ZM 1502.80 386.80 C1501.93,387.67 1494.54,388.00 1475.84,388.00 C1451.57,388.00 1450.01,387.89 1449.06,386.11 C1447.90,383.94 1448.97,382.70 1453.00,381.51 C1454.32,381.12 1456.37,379.92 1457.68,378.78 C1455.48,381.01 1453.03,382.90 1451.70,383.15 C1450.71,383.34 1450.03,383.95 1450.20,384.50 C1450.55,385.68 1501.35,386.02 1503.22,384.86 C1503.93,384.42 1502.95,383.55 1500.53,382.45 C1504.29,384.14 1504.63,384.97 1502.80,386.80 ZM 1359.00 383.75 C1359.00,383.23 1358.79,382.76 1358.47,382.43 C1361.20,383.17 1361.73,384.87 1359.80,386.80 C1358.93,387.67 1351.42,388.00 1332.27,388.00 C1309.79,388.00 1305.85,387.78 1305.36,386.50 C1304.51,384.27 1305.69,382.00 1307.72,382.00 C1310.15,381.99 1313.39,379.95 1315.75,377.22 C1313.23,380.32 1309.80,383.00 1307.84,383.00 C1306.83,383.00 1306.00,383.65 1306.00,384.44 C1306.00,385.67 1310.00,385.85 1332.50,385.69 C1357.00,385.51 1359.00,385.37 1359.00,383.75 ZM 1564.50 385.06 L 1564.50 387.50 L 1537.93 387.77 C1523.32,387.91 1511.06,387.72 1510.68,387.35 C1509.71,386.38 1509.64,385.29 1510.34,384.30 C1511.51,384.77 1523.01,385.34 1536.77,385.57 C1559.70,385.97 1563.00,385.83 1563.00,384.51 C1563.00,383.68 1562.32,383.00 1561.50,383.00 C1560.68,383.00 1560.00,382.55 1560.00,382.00 C1560.00,381.73 1559.85,381.48 1559.62,381.30 C1560.07,381.47 1560.53,381.62 1561.00,381.73 C1563.80,382.45 1564.50,383.12 1564.50,385.06 ZM 797.82 385.25 L 797.50 387.50 L 770.72 387.77 C747.55,388.00 743.87,387.83 743.37,386.52 C742.42,384.04 743.64,382.32 746.77,381.70 C748.91,381.27 750.94,380.16 752.64,378.61 C750.36,381.11 747.69,383.00 745.87,383.00 C744.84,383.00 744.00,383.64 744.00,384.42 C744.00,385.61 748.30,385.81 771.00,385.67 C790.33,385.55 796.89,385.27 797.87,384.47 C797.88,384.70 797.86,384.97 797.82,385.25 ZM 1292.75 386.69 C1292.06,387.21 1279.92,387.76 1265.76,387.92 C1242.90,388.17 1239.95,388.02 1239.40,386.60 C1238.48,384.21 1239.68,382.00 1241.89,382.00 L 1241.93 382.00 C1233.21,384.56 1250.09,386.38 1277.74,385.80 C1288.22,385.58 1291.98,385.17 1291.99,384.26 C1292.00,383.58 1290.54,382.41 1288.75,381.65 C1288.02,381.34 1287.20,380.89 1286.41,380.39 C1287.63,381.15 1289.02,381.82 1290.19,382.18 C1294.06,383.34 1295.01,385.00 1292.75,386.69 ZM 821.50 386.01 C820.66,383.35 821.40,382.37 824.76,381.70 C822.85,382.08 822.00,382.87 822.00,384.24 C822.00,386.18 822.52,386.21 845.75,385.64 C858.81,385.32 870.74,385.05 872.25,385.03 C875.37,385.00 875.76,383.22 873.62,382.18 C876.17,382.93 877.02,383.65 876.80,384.81 C876.36,387.13 869.52,387.76 843.32,387.89 C823.00,388.00 822.11,387.92 821.50,386.01 ZM 1629.25 385.10 C1635.61,384.99 1636.67,383.78 1631.87,382.10 C1629.88,381.41 1627.17,379.18 1623.79,375.44 C1625.84,377.31 1629.09,379.48 1631.62,380.60 C1637.46,383.18 1637.49,383.22 1635.96,386.07 C1635.00,387.87 1633.70,388.00 1617.15,388.00 L 1599.37 388.00 L 1598.08 386.03 C1598.82,386.25 1604.23,386.18 1610.75,385.85 C1617.76,385.49 1626.09,385.15 1629.25,385.10 ZM 886.06 306.11 C885.12,309.95 885.00,314.23 885.00,326.15 C885.00,335.98 885.09,340.65 885.65,344.27 C885.11,341.75 884.46,338.77 884.03,336.81 C882.23,328.62 883.06,316.90 886.06,306.11 ZM 327.87 415.15 C327.94,415.02 328.01,414.88 328.08,414.75 C331.30,408.41 334.00,406.04 334.00,409.57 C334.00,411.01 332.78,416.64 331.51,421.70 C332.27,417.82 332.75,413.86 332.41,412.51 C331.70,409.66 330.85,409.92 327.87,415.15 ZM 309.04 442.56 C301.50,451.65 293.74,459.53 289.53,461.73 C292.84,460.00 301.58,451.21 309.04,442.56 ZM 897.47 282.75 C893.40,288.16 890.07,294.53 887.36,302.00 C887.20,302.44 887.05,302.86 886.91,303.27 C887.10,302.68 887.29,302.09 887.50,301.50 C889.95,294.44 893.29,288.17 897.47,282.75 ZM 1319.87 356.78 C1319.95,350.84 1319.97,342.53 1319.98,330.62 C1319.99,308.98 1319.77,296.37 1319.26,290.75 C1319.77,296.36 1320.00,308.93 1320.00,330.35 C1320.00,342.28 1319.97,350.72 1319.87,356.78 ZM 1462.73 364.07 C1462.52,370.20 1462.16,372.70 1461.59,373.80 C1461.48,374.01 1461.35,374.23 1461.22,374.45 C1462.05,372.48 1462.49,369.55 1462.73,364.07 ZM 1558.94 381.02 C1558.86,381.01 1558.77,381.00 1558.69,381.00 C1557.73,381.00 1556.24,379.82 1554.81,378.18 C1556.01,379.37 1557.41,380.34 1558.94,381.02 ZM 1552.75 327.74 C1554.21,326.23 1555.67,325.00 1556.02,325.00 C1556.07,325.00 1556.21,325.13 1556.43,325.37 C1555.72,325.34 1554.45,326.11 1553.01,327.49 ZM 1378.02 380.43 C1376.62,381.32 1375.21,381.91 1374.07,381.99 C1374.43,381.83 1374.82,381.67 1375.26,381.52 C1376.33,381.15 1377.24,380.80 1378.02,380.43 ZM 321.04 426.63 C322.89,423.76 324.73,420.74 326.17,418.23 L 326.04 418.47 C324.70,420.95 323.00,423.72 321.04,426.63 ZM 871.54 381.55 C869.50,381.03 867.59,379.76 866.07,378.00 C867.49,379.57 869.31,380.75 871.54,381.55 ZM 1551.25 372.42 C1551.21,372.31 1551.17,372.21 1551.14,372.10 C1550.45,370.04 1550.00,361.21 1550.00,349.66 C1550.01,360.82 1550.47,369.83 1551.14,372.08 C1551.18,372.20 1551.21,372.31 1551.25,372.42 ZM 1283.56 378.10 C1281.11,375.35 1279.98,373.18 1279.46,364.11 C1280.01,373.51 1281.24,375.56 1284.01,378.51 C1284.23,378.74 1284.48,378.98 1284.77,379.22 C1284.29,378.83 1283.87,378.45 1283.56,378.10 ZM 1597.90 385.74 L 1595.30 381.75 C1594.21,380.07 1592.77,377.89 1591.09,375.38 C1595.18,381.44 1597.41,384.84 1597.90,385.74 ZM 1356.59 381.92 C1355.19,381.69 1353.59,380.92 1352.12,379.87 C1353.38,380.70 1354.87,381.39 1356.59,381.92 ZM 1245.38 380.52 C1247.32,379.21 1249.41,377.19 1250.77,375.20 C1249.36,377.34 1247.40,379.26 1245.38,380.52 ZM 1042.05 381.15 C1039.16,381.75 1037.31,382.40 1036.51,383.00 C1037.21,382.29 1038.77,381.83 1042.05,381.15 ZM 1384.25 371.73 C1384.87,367.08 1385.00,356.57 1385.00,329.60 C1385.00,356.97 1384.89,367.15 1384.25,371.73 ZM 1161.13 383.34 C1161.19,382.45 1161.61,382.00 1162.40,382.00 C1163.95,382.00 1166.08,381.15 1168.04,379.91 C1166.09,381.15 1163.98,382.00 1162.47,382.00 C1161.82,382.00 1161.35,382.58 1161.13,383.34 ZM 1617.39 367.64 C1614.94,364.43 1612.25,360.70 1609.35,356.46 C1612.03,360.33 1614.90,364.32 1617.39,367.64 ZM 636.33 375.02 C636.02,375.38 635.64,375.77 635.19,376.17 C636.08,375.29 636.85,374.31 637.52,373.23 C637.12,373.94 636.72,374.56 636.33,375.02 ZM 758.03 313.56 C757.91,343.58 757.53,368.99 756.89,371.54 C757.53,368.78 757.91,343.45 758.03,313.56 ZM 911.30 381.74 C914.92,384.21 918.19,386.00 919.49,386.00 C918.13,386.00 914.91,384.23 911.30,381.74 ZM 1162.55 386.50 L 1161.50 386.50 L 1161.44 386.05 C1161.51,386.16 1161.59,386.26 1161.68,386.35 C1161.74,386.40 1162.03,386.45 1162.55,386.50 ZM 886.67 348.64 C886.88,349.35 887.12,350.08 887.39,350.89 C887.67,351.71 887.95,352.50 888.24,353.28 C887.62,351.69 887.09,350.13 886.67,348.64 ZM 795.38 382.00 C796.42,382.39 797.09,382.78 797.47,383.29 C797.00,382.81 796.24,382.33 795.38,382.00 ZM 1317.83 374.17 C1317.90,374.02 1317.97,373.87 1318.04,373.73 C1318.46,372.80 1318.79,371.92 1319.05,370.63 C1318.87,371.59 1318.66,372.31 1318.41,372.93 C1318.25,373.33 1318.05,373.75 1317.83,374.17 ZM 639.89 367.08 C640.09,365.99 640.27,363.34 640.41,358.97 C640.27,363.43 640.10,366.08 639.91,366.98 C639.90,367.01 639.90,367.05 639.89,367.08 ZM 1421.83 387.00 L 1425.14 387.00 L 1425.14 387.03 ZM 328.93 430.36 C328.90,430.40 328.88,430.43 328.86,430.45 C328.46,430.90 328.11,431.75 328.02,432.48 C328.11,431.75 328.45,430.90 328.85,430.45 C328.88,430.42 328.90,430.39 328.93,430.36 ZM 794.43 381.65 C792.04,380.75 790.39,379.93 789.14,378.92 C790.39,379.93 792.03,380.74 794.43,381.65 Z" fill="rgb(90,86,82)"/>
<path d="M 524.51 391.75 C523.98,393.94 520.28,394.94 518.67,393.33 C518.30,392.97 518.00,345.24 518.00,287.27 L 518.00 181.87 L 521.25 182.19 L 524.50 182.50 L 524.77 286.00 C524.93,342.92 524.80,390.51 524.51,391.75 ZM 451.18 166.71 C448.83,178.37 446.85,179.05 445.08,168.79 C443.79,161.37 440.14,151.92 437.37,148.86 C435.80,147.12 428.93,144.22 421.00,141.94 C413.10,139.68 413.26,137.81 421.48,136.42 C427.54,135.39 435.83,131.09 438.45,127.60 C440.92,124.32 443.01,118.38 445.18,108.50 C447.00,100.21 449.09,100.40 450.57,109.00 C453.73,127.39 458.47,132.67 475.77,137.05 C478.67,137.79 480.90,138.79 480.74,139.28 C480.57,139.78 476.50,141.45 471.69,142.99 C457.19,147.66 454.35,150.94 451.18,166.71 ZM 919.49 386.00 C918.16,386.00 915.04,384.31 911.52,381.90 C915.05,384.28 918.21,386.00 919.49,386.00 Z" fill="rgb(200,136,113)"/>
<path d="M 0.00 261.50 L 0.00 0.00 L 950.50 0.00 L 1901.00 0.00 L 1901.00 261.50 L 1901.00 523.00 L 950.50 523.00 L 0.00 523.00 L 0.00 261.50 ZM 94.81 471.14 C96.24,470.23 94.22,461.37 88.05,441.50 C86.34,436.00 84.44,429.70 83.83,427.50 C83.21,425.30 82.15,421.70 81.47,419.50 C79.48,413.06 78.78,409.00 79.67,409.01 C80.13,409.01 82.07,410.50 84.00,412.31 C85.93,414.13 92.90,419.83 99.50,424.98 C115.17,437.21 135.60,454.93 144.97,464.43 L 152.45 472.00 L 158.17 472.00 C161.31,472.00 164.12,471.62 164.40,471.16 C164.92,470.32 130.49,435.45 122.06,428.28 C119.62,426.20 115.35,422.45 112.56,419.95 C109.78,417.44 104.81,413.17 101.53,410.45 C98.24,407.73 94.21,404.38 92.56,403.00 C87.61,398.88 77.62,388.73 74.97,385.14 C65.70,372.56 61.74,356.69 63.96,341.00 C66.65,322.00 76.54,308.62 93.63,300.87 C99.16,298.36 101.14,298.00 109.38,298.00 C128.51,298.00 145.81,307.42 161.72,326.50 C173.64,340.80 179.62,353.14 187.90,380.52 C189.07,384.39 191.03,388.67 192.26,390.05 C193.49,391.42 198.10,396.55 202.50,401.44 C215.11,415.47 224.08,425.92 229.99,433.50 C232.99,437.35 235.71,440.73 236.02,441.00 C236.97,441.83 248.45,458.10 252.60,464.50 C254.74,467.80 256.95,470.83 257.50,471.23 C258.05,471.64 267.88,471.98 279.35,471.98 L 300.19 472.00 L 307.21 465.25 C311.07,461.54 315.77,456.09 317.66,453.15 C322.13,446.20 328.00,434.66 328.00,432.83 C328.00,432.05 328.39,430.97 328.86,430.45 C329.77,429.45 334.00,412.26 334.00,409.57 C334.00,406.04 331.30,408.41 328.08,414.75 C326.19,418.46 321.73,425.77 318.15,431.00 C311.20,441.16 294.43,459.17 289.53,461.73 C287.83,462.62 282.83,463.49 277.77,463.78 C269.05,464.27 268.95,464.25 266.48,461.39 C265.11,459.80 263.74,457.71 263.43,456.75 C263.12,455.79 262.45,455.00 261.93,455.00 C261.42,455.00 261.00,454.33 261.00,453.50 C261.00,452.67 260.65,452.00 260.22,452.00 C259.78,452.00 258.58,450.56 257.54,448.80 C255.31,445.03 234.23,417.10 232.02,415.00 C231.73,414.73 228.58,411.12 225.00,407.00 C221.43,402.88 216.44,397.25 213.92,394.50 C201.34,380.81 201.25,380.67 198.52,371.99 C195.58,362.58 195.69,362.88 190.54,350.50 C176.89,317.65 150.82,292.78 123.66,286.69 C119.90,285.85 116.53,284.85 116.16,284.47 C115.28,283.55 118.41,281.50 129.91,275.46 C164.31,257.37 181.58,244.83 192.50,229.98 C196.39,224.70 206.00,205.98 206.00,203.69 C206.00,202.82 206.45,201.84 207.00,201.50 C207.55,201.16 208.00,199.87 208.00,198.64 C208.00,197.41 208.39,195.97 208.87,195.45 C210.62,193.55 213.00,177.72 213.00,168.02 C213.00,162.55 212.50,153.47 211.89,147.84 C210.68,136.71 211.89,120.15 214.47,112.50 C220.68,94.09 228.06,83.55 242.10,72.98 C253.97,64.06 263.73,59.85 280.50,56.43 C297.43,52.98 315.99,55.78 334.50,64.59 C343.59,68.92 348.66,72.68 357.99,82.03 C370.45,94.51 377.52,108.06 381.67,127.40 C383.81,137.40 383.86,163.75 381.74,171.50 C380.01,177.86 378.39,178.13 367.00,173.97 C356.41,170.11 352.10,168.68 344.50,166.51 C341.20,165.56 337.20,164.39 335.60,163.90 C330.85,162.43 307.00,162.75 307.00,164.28 C307.00,164.99 309.14,166.13 311.75,166.82 C314.36,167.51 317.85,168.47 319.50,168.94 C321.15,169.41 325.20,170.56 328.50,171.48 C331.80,172.41 335.28,173.58 336.24,174.08 C337.19,174.59 338.66,175.00 339.50,175.00 C340.34,175.00 341.81,175.41 342.76,175.91 C343.72,176.41 346.75,177.58 349.50,178.51 C352.25,179.43 356.30,180.99 358.50,181.97 C360.70,182.94 363.40,184.02 364.50,184.36 C366.43,184.96 366.50,185.85 366.50,209.91 C366.50,223.61 366.27,235.06 365.99,235.34 C365.71,235.62 361.75,235.40 357.19,234.85 C350.95,234.09 348.54,234.14 347.45,235.04 C345.72,236.48 345.57,239.17 347.13,240.73 C348.32,241.92 347.55,248.54 346.11,249.43 C345.66,249.71 341.18,249.45 336.15,248.86 C325.97,247.65 320.00,248.29 320.00,250.57 C320.00,252.27 324.21,254.21 334.50,257.23 L 339.50 258.70 L 333.63 261.35 C330.39,262.81 327.30,264.00 326.76,264.00 C326.21,264.00 320.13,266.70 313.26,270.00 C306.38,273.30 300.07,276.00 299.23,276.00 C297.07,276.00 288.30,268.43 274.97,255.06 C256.43,236.47 254.62,233.29 253.28,217.00 C252.52,207.80 252.42,207.49 249.95,207.20 C248.33,207.01 246.69,207.69 245.45,209.06 C243.76,210.92 243.51,212.64 243.58,221.85 C243.64,230.50 244.06,233.40 245.81,237.30 C248.80,243.95 255.80,253.46 262.51,260.00 C272.77,269.99 273.07,272.45 265.85,287.01 C260.40,298.00 259.42,300.89 257.89,310.50 C255.89,323.08 259.57,328.53 263.30,318.49 C267.14,308.14 272.00,299.25 277.92,291.75 C281.29,287.49 284.72,284.00 285.54,284.00 C286.37,284.00 289.34,285.58 292.14,287.50 C298.09,291.60 300.50,291.82 305.11,288.72 C312.97,283.44 331.70,274.66 342.00,271.43 C351.94,268.32 354.10,269.31 373.43,285.89 C378.97,290.65 386.77,297.17 390.76,300.39 C402.62,309.95 411.89,318.96 414.56,323.51 C418.44,330.13 419.77,339.36 420.91,367.50 C421.49,381.80 422.47,406.33 423.09,422.00 C423.72,437.67 424.51,455.23 424.86,461.00 L 425.50 471.50 L 429.82 471.81 C432.20,471.98 434.79,471.59 435.57,470.94 C437.31,469.50 437.41,461.29 436.03,433.25 C434.20,396.15 434.20,396.00 435.86,396.00 C438.95,396.00 446.62,405.47 449.30,412.59 C452.87,422.08 455.87,439.12 456.92,455.85 C457.40,463.56 458.10,470.35 458.46,470.93 C459.35,472.38 464.31,472.29 465.80,470.80 C467.35,469.25 467.44,439.44 465.93,430.12 C464.46,421.04 461.91,410.70 460.87,409.55 C460.39,409.03 460.00,407.99 460.00,407.25 C460.00,405.79 453.77,395.66 451.29,393.09 C450.45,392.21 446.10,389.02 441.63,385.99 L 433.50 380.48 L 432.71 364.49 C431.52,340.32 429.75,327.31 426.75,320.76 C422.63,311.77 420.61,309.87 375.07,272.04 C371.46,269.04 367.83,265.93 367.00,265.11 C364.34,262.50 356.66,258.00 354.86,258.00 C352.22,258.00 352.04,256.88 354.00,252.50 C354.98,250.30 356.07,247.65 356.41,246.61 C356.96,244.98 357.73,244.81 362.13,245.33 C368.23,246.05 373.08,244.33 375.54,240.57 C377.07,238.24 377.17,235.75 376.52,215.63 L 375.79 193.29 L 378.80 191.14 C380.45,189.96 382.21,189.00 382.69,189.00 C383.18,189.00 385.06,187.76 386.88,186.24 C389.21,184.29 390.46,182.17 391.12,178.99 C395.00,160.54 394.72,132.18 390.53,117.50 C387.73,107.70 387.70,107.63 382.97,97.72 C374.54,80.06 359.20,64.34 341.57,55.31 C318.94,43.72 288.40,41.41 263.00,49.39 C239.24,56.85 217.61,75.35 208.05,96.37 C200.22,113.60 198.63,130.08 201.61,162.85 C202.82,176.04 198.62,192.61 189.53,210.48 C183.32,222.72 178.81,228.48 170.00,235.47 C157.37,245.50 145.56,252.49 115.00,268.04 C93.62,278.92 82.72,286.24 71.80,297.03 C64.23,304.52 62.44,306.98 58.03,316.07 C51.55,329.42 49.51,339.40 50.35,353.50 C50.68,359.00 51.60,365.75 52.39,368.50 C54.34,375.28 63.03,404.75 69.19,425.50 C71.97,434.85 74.58,443.85 74.99,445.50 C76.26,450.62 82.17,470.46 82.66,471.25 C83.28,472.27 93.17,472.18 94.81,471.14 ZM 352.09 469.00 C353.59,463.94 358.13,448.34 359.64,443.00 C360.50,439.98 361.99,435.02 362.96,432.00 C363.94,428.98 365.21,424.70 365.80,422.50 C367.61,415.76 372.17,400.62 373.02,398.50 C373.47,397.40 374.29,394.70 374.85,392.50 C375.42,390.30 376.82,385.12 377.96,381.00 C382.63,364.16 385.03,351.64 383.74,350.82 C383.06,350.38 379.98,350.02 376.91,350.02 C370.54,350.00 362.36,347.57 355.88,343.78 C351.82,341.39 342.41,332.45 335.20,324.10 C333.14,321.72 331.70,320.87 330.38,321.27 C327.24,322.21 311.59,329.21 310.25,330.26 C308.16,331.90 308.83,336.12 312.49,344.51 C316.31,353.27 316.75,356.13 314.54,357.96 C312.59,359.59 311.66,358.86 307.09,352.13 C303.09,346.24 298.00,333.24 298.00,328.92 C298.01,324.83 302.00,321.45 314.50,314.93 C331.14,306.25 335.98,302.08 331.44,300.34 C329.89,299.74 312.34,306.68 306.50,310.19 C302.93,312.34 302.00,312.44 302.00,310.70 C302.00,308.30 308.30,303.16 317.69,297.90 C329.98,291.00 337.06,286.71 337.61,285.82 C337.95,285.26 337.58,284.15 336.78,283.35 C335.51,282.08 334.68,282.15 330.18,283.93 C322.25,287.05 311.11,292.86 304.73,297.19 C298.70,301.28 294.63,306.42 293.39,311.50 C292.99,313.15 291.61,316.59 290.33,319.15 C286.95,325.88 287.15,329.38 291.64,342.56 C293.51,348.07 304.50,365.46 307.69,367.97 C312.63,371.85 319.27,369.71 323.61,362.82 C327.03,357.42 327.24,349.44 324.15,343.06 C322.97,340.62 322.00,338.34 322.00,338.00 C322.00,337.65 323.59,336.61 325.54,335.68 L 329.07 334.00 L 338.29 343.25 C347.08,352.08 355.94,358.05 360.19,358.02 C361.12,358.01 362.16,358.45 362.50,359.00 C362.84,359.55 364.63,360.00 366.48,360.00 C370.19,360.00 371.02,361.21 369.91,364.98 C369.50,366.37 368.38,370.65 367.43,374.50 C364.94,384.57 362.31,393.56 353.85,421.00 C345.76,447.20 341.00,465.08 341.00,469.21 C341.00,472.07 341.07,472.10 346.17,471.80 C350.70,471.54 351.44,471.19 352.09,469.00 ZM 275.00 431.02 C275.00,428.34 274.52,423.76 273.93,420.83 C273.34,417.90 272.19,412.12 271.37,408.00 C267.16,386.79 257.79,363.43 248.84,351.76 C239.22,339.24 212.13,315.49 195.11,304.66 C187.35,299.72 173.27,292.00 172.03,292.00 C169.57,292.00 168.65,291.08 201.55,321.46 C225.03,343.14 238.28,357.65 244.51,368.50 C253.99,385.02 261.43,402.02 268.14,422.50 C270.31,429.10 272.28,435.09 272.53,435.81 C273.49,438.59 275.00,435.66 275.00,431.02 ZM 524.51 391.75 C524.80,390.51 524.93,342.92 524.77,286.00 L 524.50 182.50 L 521.25 182.19 L 518.00 181.87 L 518.00 287.27 C518.00,345.24 518.30,392.97 518.67,393.33 C520.28,394.94 523.98,393.94 524.51,391.75 ZM 951.20 388.59 C963.49,385.33 968.46,382.58 976.55,374.56 C983.36,367.79 990.00,357.59 990.00,353.88 C990.00,350.92 987.77,350.46 986.08,353.08 C982.56,358.56 973.68,366.83 968.69,369.27 C960.79,373.14 954.93,374.30 945.68,373.81 C938.68,373.45 936.56,372.89 931.85,370.20 C928.79,368.45 924.24,364.82 921.72,362.14 C917.22,357.32 911.00,346.52 911.00,343.51 C911.00,342.67 910.56,341.19 910.03,340.24 C908.50,337.51 907.01,319.71 908.19,318.28 C908.74,317.61 909.49,317.10 909.85,317.15 C910.21,317.20 928.45,317.18 950.39,317.12 L 990.28 317.00 L 989.76 308.25 C988.54,287.81 979.67,274.19 962.00,265.64 L 953.50 261.53 L 941.00 261.51 C930.06,261.50 927.75,261.80 922.50,263.93 C905.69,270.73 893.73,283.57 887.50,301.50 C883.35,313.43 881.98,327.44 884.03,336.81 C884.59,339.39 885.54,343.75 886.14,346.50 C887.90,354.69 893.60,365.45 899.58,371.91 C905.11,377.89 916.58,386.00 919.49,386.00 C920.34,386.00 921.81,386.41 922.76,386.90 C928.64,389.95 942.88,390.80 951.20,388.59 ZM 1701.04 388.60 C1708.86,386.73 1715.56,383.58 1721.57,378.95 C1730.61,371.97 1741.18,356.52 1739.65,352.52 C1738.75,350.18 1737.93,350.71 1732.84,357.00 C1722.83,369.35 1711.51,374.59 1696.52,373.81 C1674.34,372.64 1660.03,355.60 1657.53,327.36 C1656.96,320.94 1657.11,319.15 1658.30,318.17 C1659.41,317.24 1667.76,317.04 1692.63,317.32 C1710.71,317.53 1728.76,317.48 1732.75,317.21 L 1740.00 316.71 L 1740.00 310.57 C1740.00,292.45 1729.18,273.58 1714.94,266.85 C1704.14,261.74 1702.98,261.50 1689.50,261.50 L 1676.50 261.50 L 1666.92 266.19 C1651.94,273.52 1642.80,284.39 1636.39,302.50 C1633.75,309.95 1633.56,311.57 1633.53,326.00 C1633.51,338.52 1633.87,342.65 1635.40,347.50 C1642.36,369.45 1656.86,383.66 1677.50,388.76 C1683.34,390.20 1694.67,390.13 1701.04,388.60 ZM 691.99 386.51 C694.05,384.03 692.41,382.29 687.33,381.54 C680.78,380.57 676.51,377.73 673.24,372.16 L 670.50 367.50 L 670.50 280.50 L 670.50 193.50 L 683.00 193.59 C700.34,193.71 707.38,196.27 715.94,205.56 C720.86,210.89 724.68,218.55 728.06,229.88 C730.14,236.83 730.80,238.02 732.50,237.78 C734.32,237.52 734.50,236.76 734.46,229.00 C734.42,220.95 733.59,206.10 732.38,192.25 L 731.84 186.00 L 655.53 186.00 L 579.22 186.00 L 578.64 189.25 C577.65,194.72 575.84,235.93 576.53,237.06 C578.28,239.87 580.38,236.84 583.90,226.44 C590.00,208.42 596.68,200.42 610.00,195.20 C612.03,194.41 619.28,193.60 627.25,193.29 L 641.00 192.74 L 641.00 277.32 C641.00,336.64 640.66,363.48 639.86,367.20 C638.27,374.64 633.49,379.30 625.64,381.06 C619.80,382.36 618.28,383.68 619.36,386.50 C620.22,388.75 690.13,388.76 691.99,386.51 ZM 797.82 385.25 C798.06,383.55 797.45,382.75 795.32,381.98 C789.44,379.85 787.66,378.38 785.86,374.17 C784.15,370.19 784.00,366.61 784.00,330.06 L 784.00 290.29 L 789.50 285.09 C796.94,278.05 804.05,275.00 813.00,275.00 C824.62,275.00 832.28,281.05 834.87,292.25 C835.60,295.42 836.00,310.01 836.00,333.45 C836.00,373.03 835.80,374.65 830.30,378.98 C828.79,380.17 826.29,381.39 824.76,381.70 C821.40,382.37 820.66,383.35 821.50,386.01 C822.11,387.92 823.00,388.00 843.32,387.89 C869.52,387.76 876.36,387.13 876.80,384.81 C877.04,383.56 876.02,382.81 872.95,381.99 C867.75,380.59 864.48,377.41 863.09,372.38 C862.41,369.95 862.01,355.32 862.01,333.19 C862.00,312.24 861.55,294.96 860.89,290.69 C858.84,277.51 853.41,269.79 842.39,264.40 C836.94,261.74 835.63,261.52 824.95,261.51 C813.56,261.50 813.28,261.56 805.65,265.33 C801.01,267.62 795.37,271.53 791.58,275.08 C788.09,278.33 784.97,281.00 784.63,281.00 C784.29,281.00 783.90,258.84 783.76,231.75 L 783.50 182.50 L 781.00 182.62 C779.62,182.69 773.55,185.00 767.50,187.75 C761.45,190.51 754.03,193.62 751.00,194.67 C746.85,196.11 745.50,197.06 745.50,198.54 C745.50,199.87 746.30,200.61 747.99,200.85 C752.02,201.42 755.57,204.61 756.82,208.81 C758.45,214.24 758.50,365.12 756.88,371.57 C755.61,376.59 751.45,380.76 746.77,381.70 C743.64,382.32 742.42,384.04 743.37,386.52 C743.87,387.83 747.55,388.00 770.72,387.77 L 797.50 387.50 L 797.82 385.25 ZM 1108.99 386.51 C1111.09,383.98 1109.41,382.36 1103.44,381.16 C1096.43,379.75 1091.41,376.10 1088.91,370.62 C1087.13,366.70 1087.04,362.31 1087.02,279.61 L 1087.00 192.72 L 1100.75 193.30 C1108.31,193.62 1116.07,194.47 1118.00,195.19 C1132.17,200.50 1140.62,212.41 1145.87,234.49 C1146.60,237.58 1149.40,239.00 1151.21,237.19 C1151.86,236.54 1151.83,231.36 1151.12,221.85 C1150.52,213.96 1149.76,202.66 1149.42,196.75 L 1148.81 186.00 L 1072.52 186.00 L 996.23 186.00 L 995.64 193.25 C994.03,212.69 992.84,235.15 993.36,236.50 C994.22,238.75 996.92,238.31 997.93,235.75 C998.42,234.51 999.59,230.80 1000.54,227.50 C1003.28,217.98 1007.91,209.23 1012.94,204.06 C1020.63,196.16 1027.16,193.95 1044.75,193.26 L 1058.00 192.74 L 1058.00 277.86 C1058.00,342.75 1057.70,364.10 1056.75,367.72 C1054.88,374.83 1049.69,379.57 1042.05,381.15 C1036.93,382.21 1036.00,382.73 1036.00,384.53 C1036.00,385.71 1036.30,386.97 1036.67,387.33 C1037.03,387.70 1053.18,388.00 1072.54,388.00 C1102.49,388.00 1107.94,387.78 1108.99,386.51 ZM 1292.75 386.69 C1295.01,385.00 1294.06,383.34 1290.19,382.18 C1288.09,381.55 1285.31,379.90 1284.01,378.51 C1279.28,373.48 1279.03,371.07 1279.02,330.30 C1279.00,283.64 1278.55,281.03 1268.82,271.09 C1262.65,264.79 1255.38,261.72 1245.41,261.19 C1230.88,260.43 1220.42,264.22 1209.53,274.20 C1206.04,277.39 1202.70,280.00 1202.11,280.00 C1201.34,280.00 1200.94,265.53 1200.76,231.26 C1200.53,187.27 1200.34,182.50 1198.88,182.22 C1197.99,182.04 1193.71,183.62 1189.38,185.72 C1185.05,187.83 1178.12,190.80 1174.00,192.34 C1162.28,196.72 1161.82,196.95 1162.25,198.26 C1162.47,198.94 1164.10,199.98 1165.87,200.56 C1167.63,201.15 1170.30,202.85 1171.79,204.34 L 1174.50 207.05 L 1174.50 289.77 C1174.50,369.25 1174.43,372.62 1172.60,375.64 C1170.75,378.70 1165.46,382.00 1162.40,382.00 C1161.38,382.00 1160.97,382.75 1161.18,384.25 L 1161.50 386.50 L 1188.00 386.50 C1213.54,386.50 1214.50,386.43 1214.50,384.56 C1214.50,383.25 1213.53,382.38 1211.46,381.84 C1207.40,380.79 1203.43,376.40 1202.10,371.50 C1201.40,368.94 1201.01,353.59 1201.01,328.97 L 1201.00 290.43 L 1206.25 285.30 C1213.82,277.90 1218.84,275.59 1228.34,275.15 C1235.03,274.83 1236.85,275.12 1240.71,277.11 C1246.15,279.91 1249.68,284.29 1251.58,290.61 C1253.69,297.62 1253.65,369.84 1251.54,373.93 C1249.64,377.61 1244.38,382.00 1241.89,382.00 C1239.68,382.00 1238.48,384.21 1239.40,386.60 C1239.95,388.02 1242.90,388.17 1265.76,387.92 C1279.92,387.76 1292.06,387.21 1292.75,386.69 ZM 1359.80 386.80 C1361.78,384.82 1361.17,383.08 1358.25,382.38 C1353.33,381.20 1350.07,379.03 1348.27,375.73 C1346.66,372.79 1346.46,367.60 1346.00,317.00 C1345.43,253.23 1346.46,258.42 1335.44,263.83 C1330.12,266.44 1317.58,271.23 1309.50,273.74 C1305.67,274.93 1305.33,278.34 1309.00,278.84 C1313.06,279.39 1317.52,283.46 1318.81,287.78 C1319.64,290.54 1319.99,303.47 1319.98,330.62 C1319.96,366.80 1319.82,369.79 1318.04,373.73 C1316.10,378.00 1311.12,381.99 1307.72,382.00 C1305.69,382.00 1304.51,384.27 1305.36,386.50 C1305.85,387.78 1309.79,388.00 1332.27,388.00 C1351.42,388.00 1358.93,387.67 1359.80,386.80 ZM 1502.80 386.80 C1504.76,384.84 1504.23,384.03 1499.69,382.08 C1489.31,377.63 1488.41,373.53 1489.29,335.00 C1489.93,306.82 1489.03,290.22 1486.42,282.25 C1484.23,275.58 1476.40,267.16 1469.50,264.06 C1463.28,261.26 1450.80,260.27 1442.78,261.94 C1434.35,263.69 1425.93,268.32 1418.95,275.04 C1415.55,278.32 1412.37,281.00 1411.89,281.00 C1411.40,281.00 1411.00,276.50 1411.00,271.00 C1411.00,259.08 1411.11,259.14 1399.56,264.63 C1395.35,266.63 1387.54,269.71 1382.20,271.47 C1375.65,273.64 1372.39,275.22 1372.18,276.34 C1372.00,277.27 1372.66,278.27 1373.68,278.60 C1379.56,280.50 1381.43,281.65 1383.11,284.42 C1384.87,287.30 1384.99,290.18 1385.00,329.60 C1385.00,365.27 1384.77,372.16 1383.48,374.74 C1381.56,378.59 1379.96,379.90 1375.26,381.52 C1372.74,382.39 1371.50,383.42 1371.50,384.66 C1371.50,386.40 1373.02,386.52 1398.32,386.77 L 1425.14 387.03 L 1424.82 384.85 C1424.61,383.42 1423.39,382.29 1421.28,381.58 C1419.50,380.99 1417.07,379.52 1415.87,378.32 C1411.32,373.76 1411.03,370.90 1411.02,329.86 L 1411.00 291.22 L 1415.65 286.05 C1422.45,278.48 1429.92,275.00 1439.35,275.00 C1448.38,275.00 1452.70,276.67 1457.16,281.88 C1462.69,288.34 1463.00,291.02 1463.00,333.06 C1463.00,373.79 1462.98,373.96 1457.84,378.64 C1456.56,379.81 1454.38,381.10 1453.00,381.51 C1448.97,382.70 1447.90,383.94 1449.06,386.11 C1450.01,387.89 1451.57,388.00 1475.84,388.00 C1494.54,388.00 1501.93,387.67 1502.80,386.80 ZM 1564.50 385.06 C1564.50,383.12 1563.80,382.45 1561.00,381.73 C1556.39,380.56 1552.56,376.81 1551.14,372.08 C1550.46,369.80 1550.00,360.64 1550.00,349.32 L 1550.00 330.37 L 1553.01 327.49 C1554.81,325.76 1556.35,324.99 1556.85,325.56 C1558.69,327.62 1586.97,368.95 1595.30,381.75 L 1599.37 388.00 L 1617.15 388.00 C1633.70,388.00 1635.00,387.87 1635.96,386.07 C1637.49,383.22 1637.46,383.18 1631.62,380.60 C1628.67,379.29 1624.73,376.56 1622.87,374.53 C1619.67,371.03 1611.03,359.19 1605.32,350.50 C1603.88,348.30 1602.41,346.27 1602.05,346.00 C1601.69,345.73 1600.04,343.48 1598.38,341.00 C1595.37,336.50 1590.96,330.10 1581.19,316.03 C1578.33,311.93 1576.00,308.05 1576.00,307.41 C1576.00,305.87 1602.72,280.08 1608.77,275.78 C1614.18,271.94 1616.68,270.68 1623.00,268.65 C1625.47,267.85 1627.50,266.59 1627.50,265.85 C1627.50,264.76 1623.31,264.50 1605.50,264.50 C1586.64,264.50 1583.50,264.71 1583.50,266.00 C1583.50,266.85 1585.19,268.05 1587.47,268.79 C1592.01,270.28 1595.00,272.65 1595.00,274.75 C1595.00,275.54 1594.03,277.61 1592.83,279.35 C1589.58,284.09 1552.76,321.00 1551.28,321.00 C1550.25,321.00 1550.00,307.49 1550.00,251.97 C1550.00,195.06 1549.76,182.85 1548.65,182.42 C1547.91,182.14 1543.53,183.68 1538.90,185.86 C1529.86,190.11 1519.19,194.32 1514.75,195.38 C1512.67,195.88 1512.00,196.64 1512.00,198.52 C1512.00,200.57 1512.48,201.00 1514.81,201.00 C1516.65,201.00 1518.65,202.07 1520.56,204.07 L 1523.50 207.13 L 1523.50 291.00 L 1523.50 374.87 L 1520.70 377.79 C1519.16,379.40 1516.12,381.30 1513.95,382.02 C1510.24,383.24 1508.85,385.51 1510.68,387.35 C1511.06,387.72 1523.32,387.91 1537.93,387.77 L 1564.50 387.50 L 1564.50 385.06 ZM 1805.80 385.80 C1807.76,383.84 1807.22,383.14 1802.82,381.95 C1797.88,380.62 1793.51,376.32 1792.63,371.91 C1792.28,370.17 1792.00,352.14 1792.00,331.84 C1792.00,290.17 1791.87,290.96 1799.93,283.68 C1805.21,278.92 1809.61,278.73 1816.34,283.00 C1819.73,285.15 1822.30,286.00 1825.42,286.00 C1829.22,286.00 1830.22,285.50 1833.38,282.00 C1836.58,278.46 1837.00,277.38 1837.00,272.68 C1837.00,265.45 1833.71,262.14 1825.72,261.31 C1815.62,260.27 1804.55,266.53 1796.94,277.59 C1795.27,280.02 1793.48,282.00 1792.95,282.00 C1792.42,282.00 1792.00,278.06 1792.00,273.08 C1792.00,268.18 1791.73,263.45 1791.39,262.58 C1790.47,260.16 1787.62,260.66 1779.79,264.61 C1775.85,266.59 1768.10,269.71 1762.56,271.55 C1757.03,273.38 1752.55,275.36 1752.60,275.94 C1752.66,276.52 1752.77,277.45 1752.85,278.00 C1752.93,278.55 1754.28,279.00 1755.85,279.00 C1759.61,279.00 1763.56,282.77 1764.91,287.63 C1766.46,293.20 1766.38,366.99 1764.82,372.19 C1763.49,376.65 1759.09,380.83 1754.84,381.68 C1751.57,382.34 1750.57,383.45 1751.38,385.55 C1751.85,386.77 1756.17,387.00 1778.27,387.00 C1797.42,387.00 1804.93,386.67 1805.80,385.80 ZM 1339.99 241.14 C1344.10,238.94 1348.00,232.17 1348.00,227.23 C1348.00,225.33 1347.08,222.14 1345.95,220.14 C1339.38,208.45 1322.61,209.47 1317.41,221.87 C1315.43,226.62 1315.65,230.02 1318.27,234.99 C1321.04,240.21 1325.81,243.00 1332.00,243.00 C1334.50,243.00 1338.08,242.17 1339.99,241.14 ZM 253.79 197.50 C254.04,195.03 253.13,193.50 248.79,188.98 C242.22,182.14 240.00,176.21 240.00,165.48 C240.00,159.47 240.45,157.01 242.01,154.49 C244.42,150.58 248.62,148.63 252.60,149.57 C256.28,150.44 261.75,155.53 263.53,159.75 C264.40,161.82 265.60,163.00 266.83,163.00 C270.03,163.00 271.30,160.45 270.78,155.04 C270.26,149.69 266.19,143.13 262.85,142.25 C261.83,141.98 261.00,141.44 261.00,141.04 C261.00,140.64 259.26,139.80 257.13,139.16 C243.82,135.17 232.20,142.93 229.01,157.93 C227.31,165.98 228.94,175.71 233.63,185.50 C238.87,196.44 244.05,201.29 249.95,200.80 C253.08,200.53 253.53,200.15 253.79,197.50 ZM 347.45 194.05 L 351.31 190.10 L 348.90 189.15 C347.58,188.63 344.48,187.65 342.00,186.97 C339.52,186.30 336.15,185.16 334.50,184.46 C329.13,182.16 316.00,178.67 315.31,179.36 C313.77,180.89 329.48,194.49 335.17,196.55 C341.16,198.73 343.31,198.29 347.45,194.05 ZM 451.18 166.71 C454.35,150.94 457.19,147.66 471.69,142.99 C476.50,141.45 480.57,139.78 480.74,139.28 C480.90,138.79 478.67,137.79 475.77,137.05 C458.47,132.67 453.73,127.39 450.57,109.00 C449.09,100.40 447.00,100.21 445.18,108.50 C443.01,118.38 440.92,124.32 438.45,127.60 C435.83,131.09 427.54,135.39 421.48,136.42 C413.26,137.81 413.10,139.68 421.00,141.94 C428.93,144.22 435.80,147.12 437.37,148.86 C440.14,151.92 443.79,161.37 445.08,168.79 C446.85,179.05 448.83,178.37 451.18,166.71 ZM 908.45 309.92 C907.61,308.55 908.75,298.86 910.44,293.00 C912.73,285.11 915.91,279.51 920.77,274.82 C926.90,268.90 933.14,266.54 940.76,267.28 C950.31,268.19 955.64,272.07 960.37,281.53 C964.35,289.49 966.49,307.11 963.80,309.80 C962.19,311.41 909.44,311.52 908.45,309.92 ZM 1658.10 310.08 C1656.91,309.33 1656.94,307.93 1658.29,300.58 C1661.07,285.46 1667.55,274.60 1676.58,269.96 C1680.44,267.98 1682.84,267.50 1688.94,267.52 C1695.46,267.54 1697.08,267.92 1700.74,270.28 C1705.72,273.49 1709.28,278.52 1711.93,286.07 C1714.38,293.04 1715.52,304.62 1714.11,308.25 L 1713.05 311.00 L 1686.27 310.98 C1671.55,310.98 1658.87,310.57 1658.10,310.08 Z" fill="#fffaf5"/>
</g>
</svg>